<svg width="212" height="208" viewBox="0 0 212 208" fill="none" xmlns="http://www.w3.org/2000/svg">
<mask id="mask0_7955_46219" style="mask-type:luminance" maskUnits="userSpaceOnUse" x="0" y="0" width="212" height="208">
<path d="M212 0H0V208H212V0Z" fill="white"/>
</mask>
<g mask="url(#mask0_7955_46219)">
<path d="M28.9027 59.6055L7.63145 80.238C7.63145 80.238 -9.53932 98.0565 7.63145 121.339C24.8022 144.621 59.6563 173.954 59.6563 173.954L80.1588 151.582C80.1588 151.582 96.5606 132.689 80.1588 112.633C66.0991 95.4414 28.9027 59.6055 28.9027 59.6055Z" fill="white"/>
<path d="M31.75 56.7876L53.0213 77.42C53.0213 77.42 71.3914 94.0751 95.3946 77.42C119.398 60.7649 149.639 26.9576 149.639 26.9576L126.574 7.07083C126.574 7.07083 107.096 -8.83854 86.4197 7.07083C68.6954 20.7082 31.75 56.7876 31.75 56.7876Z" fill="white"/>
<path d="M183.108 146.113L204.38 125.48C204.38 125.48 221.551 107.662 204.38 84.3795C187.209 61.0972 152.355 31.7643 152.355 31.7643L131.852 54.1369C131.852 54.1369 115.45 73.0292 131.852 93.085C145.911 110.277 183.108 146.113 183.108 146.113Z" fill="white"/>
<path d="M61.1251 179.963L82.3964 200.595C82.3964 200.595 100.767 217.251 124.77 200.595C148.773 183.941 179.014 150.133 179.014 150.133L155.949 130.246C155.949 130.246 136.471 114.337 115.795 130.246C98.0705 143.884 61.1251 179.963 61.1251 179.963Z" fill="white"/>
</g>
</svg>
